<?xml version="1.0" standalone="no"?>
<!DOCTYPE svg PUBLIC "-//W3C//DTD SVG 20010904//EN"
 "http://www.w3.org/TR/2001/REC-SVG-20010904/DTD/svg10.dtd">
<svg version="1.0" xmlns="http://www.w3.org/2000/svg"
 width="4961.000000pt" height="7016.000000pt" viewBox="0 0 4961.000000 7016.000000"
 preserveAspectRatio="xMidYMid meet">

<g transform="translate(0.000000,7016.000000) scale(0.100000,-0.100000)"
fill="#000000" stroke="none">
<path d="M36310 46845 c0 -3 44 -58 98 -123 54 -64 153 -189 221 -277 68 -88
127 -164 131 -168 4 -5 23 17 42 50 20 32 95 159 168 283 73 124 134 228 137
233 2 4 -176 7 -396 7 -221 0 -401 -2 -401 -5z"/>
<path d="M30170 46522 l0 -322 175 0 175 0 0 148 0 147 -175 175 -175 175 0
-323z"/>
<path d="M13340 44823 l0 -1878 102 6 c57 4 169 7 251 8 l147 1 0 1628 -1
1627 -249 243 -250 244 0 -1879z"/>
<path d="M30693 37903 c-11 -21 -42 -78 -69 -128 -26 -49 -139 -258 -251 -464
l-203 -374 0 -169 c0 -92 1 -168 3 -168 1 -1 83 -5 182 -10 99 -5 217 -12 263
-16 l82 -7 0 94 c0 85 4 104 39 194 21 55 79 207 130 337 50 131 91 243 90
250 0 7 -55 122 -122 256 l-123 243 -21 -38z"/>
<path d="M24220 37119 c-58 -5 -152 -10 -210 -13 -211 -10 -315 -24 -600 -82
-199 -40 -211 -44 -336 -91 -132 -50 -187 -112 -229 -257 l-17 -57 -32 29
c-29 25 -44 30 -118 36 -63 5 -97 3 -129 -8 -24 -7 -69 -20 -99 -27 -51 -11
-182 -56 -375 -127 -44 -16 -138 -57 -208 -91 -142 -69 -137 -62 -95 -144 25
-50 76 -189 92 -252 8 -27 25 -79 40 -115 15 -36 29 -78 31 -95 9 -61 16 -85
45 -156 17 -41 47 -123 67 -184 19 -60 47 -144 61 -185 15 -41 25 -78 24 -82
-1 -4 3 -20 9 -35 6 -15 17 -52 25 -81 8 -29 28 -86 45 -125 32 -76 49 -125
94 -272 15 -49 36 -113 45 -142 14 -42 17 -85 16 -236 -1 -212 -6 -228 -59
-198 -18 10 -50 24 -72 31 -22 7 -42 16 -45 20 -3 5 -30 17 -60 27 -112 38
-161 78 -130 109 17 17 31 184 19 249 -22 128 -30 164 -59 270 -35 127 -61
239 -65 276 -2 15 -6 41 -10 58 -4 18 -8 42 -10 54 -20 134 -31 183 -70 322
-36 131 -46 177 -51 235 -3 30 -13 87 -24 125 -30 110 -78 315 -85 365 -6 44
-5 46 27 63 25 13 27 16 8 11 -22 -6 -40 -18 -96 -64 -7 -5 -14 -6 -17 -3 -3
3 -16 -4 -28 -15 -12 -12 -36 -24 -53 -28 -17 -4 -130 -55 -251 -114 -121 -59
-230 -111 -242 -114 -13 -4 -23 -11 -23 -15 0 -4 -19 -14 -42 -21 -41 -12 -93
-33 -165 -67 -18 -8 -33 -20 -33 -25 0 -5 -4 -6 -10 -3 -5 3 -10 2 -10 -3 0
-5 -33 -24 -72 -42 -40 -18 -118 -54 -173 -80 -55 -26 -118 -53 -140 -60 -70
-23 -458 -208 -463 -222 -6 -13 -152 -78 -181 -80 -14 -1 -36 4 -49 11 -27 15
-81 6 -89 -15 -3 -8 -11 -14 -18 -14 -7 0 -15 -3 -17 -7 -1 -5 -29 -21 -61
-37 -35 -18 -73 -47 -95 -74 -22 -27 -57 -54 -87 -68 -73 -34 -88 -51 -115
-129 -12 -38 -29 -77 -36 -86 -8 -8 -14 -34 -14 -56 0 -64 29 -251 45 -289 8
-19 10 -32 6 -29 -5 2 -12 -10 -16 -28 -13 -62 -25 -303 -19 -380 l5 -78 -38
7 c-45 8 -52 17 -54 64 -1 33 -2 33 -9 -10 -11 -61 -33 -641 -25 -660 3 -9 22
-25 43 -35 20 -11 40 -24 44 -30 4 -5 8 -6 8 -1 0 5 6 4 13 -1 6 -6 28 -13 47
-16 19 -4 70 -17 113 -29 l78 -23 -1 -35 c-3 -69 -3 -70 40 -70 30 0 40 -4 40
-16 0 -13 -7 -15 -37 -11 -58 9 -396 28 -401 23 -2 -3 9 -8 24 -11 16 -3 43
-12 59 -20 17 -8 44 -17 60 -21 17 -4 35 -11 41 -16 12 -9 101 -32 239 -63 44
-10 82 -21 85 -24 3 -4 17 -12 33 -18 15 -7 27 -19 27 -27 0 -25 79 -40 188
-38 39 1 72 -2 72 -7 0 -5 17 -12 38 -15 92 -17 279 -58 297 -67 62 -28 170
-55 308 -76 20 -3 37 -9 37 -13 0 -8 12 -11 200 -51 58 -12 112 -28 120 -34
14 -12 180 -56 265 -70 22 -4 42 -10 45 -14 3 -4 64 -20 135 -36 130 -28 159
-40 202 -83 13 -13 28 -20 33 -17 5 3 18 1 28 -4 10 -5 54 -12 98 -15 107 -8
146 -14 153 -24 3 -5 49 -18 101 -30 117 -26 223 -55 230 -63 4 -4 193 -48
278 -64 17 -4 32 -10 32 -15 0 -4 17 -11 38 -14 39 -7 177 -47 252 -73 32 -12
107 -18 260 -24 352 -13 817 -29 1110 -39 151 -5 419 -15 595 -21 356 -13 555
-13 568 0 5 5 -8 12 -30 16 -21 4 -40 10 -43 14 -3 3 -61 15 -130 24 -69 10
-129 22 -134 28 -6 5 -24 9 -42 9 -17 0 -48 7 -67 15 -20 8 -55 15 -77 15 -22
0 -40 3 -40 8 0 4 -21 8 -48 9 -61 3 -192 33 -192 44 0 5 -13 9 -29 9 -16 0
-51 6 -77 14 -60 18 -210 46 -245 46 -14 0 -29 4 -35 9 -11 11 -261 39 -359
41 -38 1 -72 5 -75 10 -3 5 -55 14 -115 20 -61 7 -113 15 -118 19 -4 4 12 27
36 52 l44 44 319 -12 c175 -6 368 -12 428 -13 60 -1 117 -6 125 -11 9 -4 169
-13 356 -19 824 -25 992 -30 1018 -33 15 -2 27 1 27 6 0 5 7 7 15 3 8 -3 15
-1 15 4 0 6 6 10 14 10 7 0 19 7 26 15 7 8 22 15 35 15 20 0 23 8 34 78 6 42
18 115 26 162 8 47 21 134 30 193 16 122 10 146 -36 145 -29 -1 -49 8 -49 23
0 6 9 7 23 3 23 -8 100 -15 81 -8 -6 3 -9 15 -7 29 4 19 0 24 -18 27 -13 2
-25 9 -25 16 -1 6 -2 17 -3 22 0 6 -11 0 -23 -12 -14 -14 -23 -18 -26 -10 -2
7 -10 12 -18 12 -10 0 -14 -12 -14 -40 0 -22 -4 -40 -9 -40 -5 0 -9 12 -8 28
1 35 -21 112 -32 112 -5 0 -7 -9 -4 -19 4 -16 -2 -21 -33 -27 -30 -5 -40 -3
-51 12 -16 22 -9 60 14 87 9 9 13 20 10 24 -4 3 -7 1 -7 -5 0 -6 -7 -9 -15 -6
-10 4 -15 20 -15 53 0 33 3 42 10 31 8 -13 10 -12 10 3 0 22 58 80 71 71 5 -3
9 -1 9 3 0 4 36 19 79 33 71 22 80 27 85 52 3 16 3 125 0 242 l-6 214 31 23
c17 12 40 43 51 67 19 39 20 48 8 70 -7 14 -25 29 -40 34 -34 12 -56 55 -83
163 -19 76 -22 80 -51 85 -33 5 -100 59 -128 101 -19 30 -25 54 -32 124 -3 28
-14 82 -25 121 -10 38 -19 84 -19 102 0 37 -17 52 -25 20 -2 -13 -6 -85 -7
-160 -2 -81 -7 -141 -14 -148 -19 -19 -42 -1 -42 35 0 18 -7 46 -16 62 -8 15
-25 48 -37 73 -24 49 -37 62 -57 55 -7 -3 -15 3 -18 13 -3 9 -10 25 -15 35 -6
10 -13 42 -16 70 -3 29 -9 54 -13 57 -15 10 -40 69 -46 109 -4 23 -11 44 -15
47 -12 7 -11 61 1 69 6 4 5 14 -4 28 -8 12 -19 51 -25 86 -6 36 -15 69 -21 75
-5 5 -10 23 -10 38 0 16 -7 31 -15 34 -21 9 -7 26 16 19 30 -10 33 31 8 120
-25 93 -21 173 12 218 17 23 20 40 17 95 -3 72 10 97 24 45 5 -18 13 -33 17
-33 26 0 72 38 82 68 15 46 46 72 85 72 18 0 35 4 38 9 3 5 23 11 43 13 21 3
76 16 123 30 269 80 415 112 464 103 31 -6 34 -10 26 -25 -6 -10 -10 -23 -10
-27 0 -5 38 -29 85 -53 47 -24 85 -47 85 -52 0 -4 6 -8 13 -8 6 0 33 -13 58
-29 49 -31 83 -86 92 -151 6 -37 37 -116 107 -265 43 -94 95 -155 131 -155 45
0 126 32 159 62 l35 31 0 121 c0 188 -10 254 -48 334 -34 69 -69 122 -116 171
-13 15 -30 36 -39 49 -8 13 -36 35 -61 49 -25 15 -48 30 -51 34 -8 10 -121 50
-175 61 -254 52 -476 40 -777 -41 -43 -12 -90 -23 -105 -25 -43 -5 -136 -37
-155 -53 -9 -8 -44 -18 -77 -22 -33 -4 -68 -14 -78 -22 -15 -13 -67 -39 -77
-39 -13 0 -12 49 1 81 17 45 23 47 48 19 43 -48 57 -10 31 88 -12 45 -12 65 0
143 13 80 13 98 -1 166 -15 74 -31 102 -91 166 -43 47 -97 87 -115 87 -10 0
-19 5 -19 10 0 6 -9 10 -20 10 -11 0 -20 4 -20 8 0 10 -119 40 -185 47 -27 3
-72 10 -100 15 -70 13 -370 18 -495 9z m546 -193 l69 -25 -85 -2 c-113 -2
-164 1 -168 12 -2 5 -13 9 -25 8 -12 0 -16 -3 -9 -6 22 -9 13 -20 -28 -32 -31
-9 -54 -9 -102 0 -149 27 -136 54 27 54 63 0 117 4 121 8 17 16 132 6 200 -17z
m-553 -30 c-1 -4 -3 -11 -5 -17 -4 -12 -109 -38 -155 -39 -26 0 -33 4 -33 19
0 30 55 51 130 47 36 -2 64 -6 63 -10z m-778 -8 c30 -14 33 -38 4 -38 -12 0
-60 -13 -108 -29 -131 -44 -141 -45 -141 -21 0 34 19 60 43 60 12 0 45 9 72
20 58 22 94 25 130 8z m485 -59 c0 -4 -17 -11 -37 -16 -30 -8 -44 -6 -66 7
-22 14 -25 19 -13 23 9 4 22 4 30 1 8 -3 23 -1 32 4 17 10 54 -4 54 -19z
m-778 -44 c5 -8 14 -15 20 -15 17 0 48 -31 48 -49 0 -8 12 -25 26 -38 22 -18
23 -22 7 -20 -10 0 -32 -8 -48 -19 -17 -12 -50 -34 -75 -49 -25 -16 -57 -42
-73 -59 -25 -29 -27 -29 -19 -6 8 22 -11 103 -38 160 -4 9 -11 35 -15 58 -6
38 -4 43 16 50 37 14 141 5 151 -13z m94 -183 c6 -12 19 -30 30 -40 10 -9 25
-28 32 -41 11 -19 11 -26 -2 -40 -14 -15 -13 -18 4 -29 12 -7 20 -23 20 -39 0
-14 -3 -24 -6 -20 -3 3 -18 -5 -33 -19 -21 -20 -24 -27 -15 -42 7 -9 19 -16
28 -16 9 1 16 -1 16 -6 0 -11 -48 -30 -76 -30 -14 0 -37 -6 -52 -14 -15 -7
-40 -16 -57 -20 -29 -7 -28 -6 10 20 54 37 59 47 30 62 -14 7 -25 17 -25 23 0
5 -11 14 -25 19 -14 5 -25 18 -25 28 0 9 -8 28 -17 42 -11 16 -13 25 -5 28 8
2 8 11 1 30 -9 24 -7 30 18 50 15 13 39 32 53 44 27 23 60 38 75 34 6 -1 15
-12 21 -24z m3034 -136 c0 -2 -15 -6 -34 -8 -19 -2 -32 0 -30 4 5 8 64 12 64
4z m155 -17 c62 -10 135 -37 135 -49 0 -4 14 -10 32 -14 31 -6 88 -50 88 -68
0 -5 -22 -6 -50 -2 -56 7 -71 -10 -22 -27 15 -5 36 -24 47 -42 10 -17 30 -50
43 -72 21 -34 44 -122 56 -215 2 -14 13 -67 26 -117 24 -98 22 -171 -5 -193
-15 -13 -39 -4 -30 11 4 5 1 9 -4 9 -6 0 -11 7 -11 15 0 9 -7 18 -15 21 -12 5
-13 9 -4 21 9 10 9 19 -1 38 -7 14 -17 25 -22 25 -4 0 -14 16 -22 35 -8 19
-20 35 -25 35 -6 0 -15 18 -21 40 -6 22 -16 40 -22 40 -6 0 -8 11 -5 26 3 16
0 28 -9 31 -8 3 -14 18 -14 34 0 15 -6 32 -13 36 -8 4 -22 21 -33 38 -24 37
-51 65 -64 65 -5 0 -14 9 -20 19 -5 11 -39 34 -75 52 -102 50 -101 54 19 73
58 9 119 16 135 16 17 0 31 3 31 6 0 13 -49 52 -52 42 -3 -7 -16 -6 -38 4 -19
9 -54 21 -77 28 -24 7 -43 16 -43 20 0 4 -14 10 -31 14 -17 3 -28 10 -24 15 5
10 33 8 140 -10z m-3405 -146 c0 -22 -2 -25 -10 -13 -13 20 -13 40 0 40 6 0
10 -12 10 -27z m498 -32 c9 -4 34 -16 55 -26 51 -25 161 -136 187 -190 24 -50
31 -126 13 -132 -7 -3 -28 30 -52 79 -22 47 -47 90 -55 97 -9 8 -16 22 -16 31
0 21 -53 66 -120 101 -25 13 -47 27 -50 30 -3 4 -14 9 -25 12 -13 3 -9 5 13 6
18 0 40 -3 50 -8z m-148 -197 c4 -23 13 -52 21 -65 20 -32 41 -104 45 -153 1
-22 9 -56 17 -75 17 -42 39 -129 39 -151 0 -8 5 -31 11 -50 6 -19 10 -58 8
-86 -2 -48 9 -89 46 -173 15 -33 22 -115 22 -238 0 -29 5 -62 11 -73 23 -44
42 -362 26 -437 -4 -19 -3 -34 3 -38 16 -9 13 -36 -6 -50 -13 -10 -16 -29 -15
-107 1 -113 7 -108 -129 -108 l-86 0 -7 112 c-4 61 -12 118 -18 125 -7 8 -13
61 -14 126 -2 99 -28 306 -33 267 -2 -11 -5 -9 -10 5 -5 11 -6 34 -4 51 3 17
-2 64 -11 105 -8 41 -17 121 -20 179 -5 105 -19 220 -52 420 -21 127 -26 300
-9 306 6 3 24 0 38 -5 19 -7 27 -7 27 0 0 7 10 9 25 5 14 -4 25 -3 25 1 0 13
-25 76 -39 102 -15 26 -7 37 29 44 47 8 55 3 60 -39z m280 4 c27 -28 38 -55
54 -134 8 -36 10 -68 4 -77 -4 -9 -4 -37 3 -66 14 -67 8 -276 -8 -292 -7 -7
-15 -10 -18 -7 -4 3 -15 48 -26 99 -11 52 -27 126 -35 164 -8 39 -17 87 -19
108 -2 21 -10 53 -19 71 -16 34 -63 86 -77 86 -13 0 -11 -24 2 -37 6 -6 8 -17
4 -23 -5 -8 -19 2 -44 28 -20 22 -46 43 -58 46 -14 5 -20 12 -16 22 3 9 12 12
24 9 11 -4 19 -2 19 3 0 6 9 8 20 5 11 -3 20 -1 20 3 0 5 33 10 74 12 67 3 76
1 96 -20z m1588 -396 c3 -41 2 -42 -27 -42 -29 0 -31 3 -31 35 0 22 6 38 18
44 27 16 37 7 40 -37z m-3379 -444 c-1 -13 0 -36 4 -53 4 -16 9 -49 12 -72 3
-23 9 -53 14 -66 5 -13 14 -49 20 -78 6 -30 29 -121 50 -203 22 -82 38 -153
35 -158 -3 -4 3 -35 12 -68 13 -46 14 -64 5 -73 -6 -6 -11 -31 -11 -55 0 -81
-36 -158 -59 -125 -7 11 -118 40 -186 48 -27 3 -111 -1 -185 -9 -89 -10 -136
-12 -141 -5 -4 7 -35 6 -94 -1 -76 -9 -90 -9 -97 4 -15 27 -75 56 -115 56 -43
0 -112 -42 -132 -79 -12 -22 -60 -33 -145 -32 -34 0 -106 -6 -160 -14 -55 -8
-116 -15 -136 -15 -36 0 -37 1 -44 43 -3 23 -8 52 -12 63 -5 19 -2 21 23 18
21 -2 19 0 -9 8 -27 8 -38 17 -38 31 0 46 -113 162 -172 178 -79 21 -169 -35
-220 -136 -18 -36 -39 -77 -46 -91 -7 -13 -21 -55 -31 -92 -16 -62 -19 -67
-46 -70 l-30 -3 4 88 c2 48 8 91 13 94 16 10 3 380 -14 390 -10 7 -8 9 6 9 11
0 56 11 100 25 172 52 232 68 246 67 15 0 88 19 235 63 44 13 117 33 162 45
45 11 94 25 109 30 15 6 48 13 74 15 27 3 68 11 92 19 24 8 79 24 123 35 44
10 141 36 215 56 74 21 151 39 170 41 19 2 109 24 200 48 198 53 202 53 199
24z m-1979 -492 c0 -3 -8 -13 -17 -22 -17 -17 -17 -18 -1 -11 14 5 20 0 25
-21 10 -37 9 -307 -1 -419 l-9 -91 -33 -4 c-27 -3 -34 0 -37 17 -4 19 -5 19
-12 -2 -4 -13 -11 -20 -16 -17 -5 3 -9 0 -9 -5 0 -7 -28 -11 -74 -10 l-74 1
-10 83 c-8 63 -8 100 2 161 15 87 30 134 45 134 5 0 12 8 15 18 6 19 13 22 66
25 47 3 35 17 -14 17 -39 0 -48 -4 -75 -39 -41 -52 -69 -216 -55 -327 l10 -74
-36 -5 c-71 -12 -79 -12 -82 -4 -2 4 -43 1 -93 -6 -49 -7 -120 -16 -157 -19
l-67 -6 -5 32 c-12 79 -14 152 -6 249 13 160 10 154 93 178 40 12 108 32 152
45 167 51 261 77 290 80 43 4 125 25 144 36 17 10 41 13 41 6z m4860 -16 c-8
-5 -24 -9 -35 -9 l-20 0 20 9 c11 5 27 9 35 9 13 1 13 0 0 -9z m-4809 -203
c-2 -157 -17 -327 -31 -341 -13 -13 -6 102 11 169 6 22 9 102 7 177 -2 79 1
130 6 121 4 -8 8 -65 7 -126z m375 -36 c86 -39 131 -99 102 -138 -6 -8 -4 -10
9 -7 14 4 23 -7 41 -46 28 -66 28 -74 -3 -66 -14 4 -25 3 -25 -1 0 -5 -39 -8
-88 -7 -48 0 -105 -3 -127 -7 -22 -4 -75 -10 -117 -14 l-77 -7 20 74 c23 81
34 101 87 160 33 37 100 78 127 78 6 0 28 -9 51 -19z m885 -170 l23 -18 -80
-7 c-43 -4 -88 -9 -99 -12 -15 -4 -11 3 15 26 41 36 104 41 141 11z m2444 -72
c-14 -7 -25 -31 -38 -80 -9 -39 -15 -74 -12 -78 2 -5 7 -40 10 -79 2 -39 5
-75 6 -79 1 -4 1 -73 0 -152 l-1 -143 -47 7 c-27 4 -49 11 -51 16 -2 5 -12 9
-22 9 -63 0 -98 131 -99 374 -1 131 -4 163 -17 177 -15 17 -14 18 18 23 94 16
283 19 253 5z m79 -75 c9 -8 16 -28 16 -43 0 -26 -3 -28 -31 -25 -18 2 -28 0
-24 -6 3 -6 -1 -10 -9 -10 -9 0 -16 -4 -16 -10 0 -19 -17 -10 -28 15 -17 37
-15 72 6 84 26 15 69 13 86 -5z m-4191 -545 c26 -12 47 -47 47 -77 0 -9 -8 -1
-18 18 -20 40 -49 50 -70 24 -8 -11 -12 -12 -8 -4 3 8 9 23 12 33 7 20 6 20
37 6z m3907 -49 c88 -13 100 -13 80 0 -10 8 11 9 70 6 132 -8 200 -17 200 -27
0 -5 14 -9 30 -9 17 0 30 -4 30 -10 0 -5 9 -10 20 -10 11 0 20 -4 20 -10 0 -5
9 -10 20 -10 11 0 20 -4 20 -10 0 -5 7 -10 15 -10 20 0 65 -45 65 -65 0 -8 5
-15 10 -15 21 0 9 -20 -12 -21 -22 -1 -22 -1 2 -9 14 -4 37 -11 53 -14 32 -8
34 -19 6 -49 -22 -23 -23 -24 -70 -26 -30 -1 -30 -2 -24 -38 16 -90 17 -88
-50 -87 -33 1 -80 5 -104 9 -27 5 -42 4 -38 -1 3 -6 -22 -10 -58 -12 -36 -1
-81 -8 -101 -17 -39 -16 -67 -20 -48 -7 6 4 13 14 16 23 5 14 0 16 -37 12 -25
-3 -45 -1 -49 5 -5 8 -14 8 -31 0 -33 -15 -79 4 -127 53 -21 21 -38 33 -38 28
0 -6 10 -19 23 -30 l22 -18 -22 -1 c-13 0 -23 5 -23 10 0 6 -7 10 -15 10 -8 0
-15 3 -15 8 0 4 -18 27 -41 52 -45 49 -71 102 -62 126 5 14 8 12 19 -7 18 -32
17 -20 -2 32 -9 24 -19 70 -23 101 l-7 58 105 -6 c58 -3 135 -9 171 -14z
m-3959 -33 c-6 -6 -11 -20 -11 -31 0 -10 -3 -17 -6 -13 -10 10 7 68 18 61 6
-4 6 -10 -1 -17z m106 -64 c-3 -10 -5 -2 -5 17 0 19 2 27 5 18 2 -10 2 -26 0
-35z m-32 17 c9 -27 3 -140 -7 -146 -4 -3 -8 0 -8 6 0 6 -4 9 -9 6 -11 -7 -21
28 -21 77 0 62 31 102 45 57z m-88 -47 c-3 -10 -5 -4 -5 12 0 17 2 24 5 18 2
-7 2 -21 0 -30z m20 -30 c-3 -10 -5 -2 -5 17 0 19 2 27 5 18 2 -10 2 -26 0
-35z m2179 12 c37 -22 74 -55 61 -55 -3 0 10 -33 29 -74 35 -76 43 -123 23
-143 -15 -15 -49 -4 -50 16 -2 45 -8 59 -42 96 -41 45 -51 37 -12 -9 17 -20
25 -40 24 -65 0 -33 -17 -90 -18 -65 -1 6 -8 11 -16 11 -10 0 -15 -11 -15 -34
0 -19 7 -41 15 -49 13 -14 15 -13 15 10 0 14 5 26 10 26 14 0 13 -53 -2 -104
-16 -56 -29 -68 -17 -16 5 24 8 48 6 54 -3 6 -8 -2 -11 -19 -11 -49 -52 -119
-80 -135 -21 -12 -30 -13 -58 -2 -18 8 -40 15 -47 16 -21 4 -26 26 -7 26 10 0
16 9 16 23 0 16 3 18 9 9 7 -11 9 -11 14 2 7 18 33 21 40 6 3 -6 4 -5 3 2 -2
7 4 21 12 31 9 10 16 27 17 39 2 20 1 20 -11 2 -26 -38 -37 -46 -55 -41 -11 3
-17 1 -13 -4 3 -5 -2 -9 -10 -9 -10 0 -16 -9 -16 -25 0 -40 -27 -29 -45 18
-19 49 -19 62 -3 62 6 0 13 6 16 13 3 9 -3 13 -14 12 -42 -5 -41 -9 -35 128 1
23 6 32 19 32 11 0 13 3 5 8 -21 13 12 142 37 142 6 0 10 6 10 13 0 17 44 55
84 73 35 15 54 11 112 -21z m-2174 -85 c7 0 7 -4 0 -13 -11 -12 -8 -60 4 -79
8 -13 41 -9 54 7 7 9 10 27 6 45 -3 17 -1 30 4 30 18 0 11 -66 -10 -88 -24
-25 -25 -25 -50 -12 -19 10 -25 30 -34 115 -5 42 -4 46 5 23 6 -16 15 -28 21
-28z m95 -17 c-3 -10 -5 -4 -5 12 0 17 2 24 5 18 2 -7 2 -21 0 -30z m433 -82
c0 -5 14 -11 30 -15 21 -4 34 -14 40 -32 6 -15 8 -29 6 -32 -10 -9 -231 22
-244 35 -22 22 -4 33 54 33 30 0 54 5 54 10 0 6 14 10 30 10 17 0 30 -4 30 -9z
m5765 -71 c-3 -5 -11 -10 -16 -10 -6 0 -7 5 -4 10 3 6 11 10 16 10 6 0 7 -4 4
-10z m-5066 -61 c52 -10 99 -23 105 -28 6 -5 32 -12 59 -15 26 -4 47 -13 47
-19 0 -8 2 -9 8 -1 5 8 36 6 110 -5 l102 -15 0 -39 0 -38 -47 6 c-49 7 -72 12
-208 46 -44 11 -118 26 -164 35 -47 8 -89 18 -95 23 -6 4 -43 13 -82 20 -71
12 -71 13 -60 37 10 23 14 24 71 18 33 -3 102 -14 154 -25z m1060 -143 c-11
-58 -69 -158 -101 -173 -38 -19 -70 -23 -92 -11 -34 17 -106 78 -106 90 0 5
15 -3 33 -18 53 -44 90 -56 133 -41 54 18 91 70 111 155 19 79 37 77 22 -2z
m521 -166 c0 -5 10 -10 23 -10 37 0 321 -60 327 -69 3 -5 31 -12 63 -15 32 -4
56 -10 53 -14 -3 -3 1 -14 11 -24 9 -10 14 -18 12 -19 -2 0 -14 -2 -26 -5 -13
-2 -23 0 -23 4 0 5 -6 9 -12 9 -71 4 -178 30 -178 42 0 5 -15 11 -32 14 -18 3
-60 12 -93 21 -60 15 -125 24 -177 25 -16 1 -28 6 -28 12 0 7 -8 18 -17 25
-16 12 -10 13 40 14 31 0 57 -4 57 -10z m-690 -50 c12 -8 9 -10 -12 -10 -16 0
-28 5 -28 10 0 13 20 13 40 0z"/>
<path d="M19818 34713 c7 -3 16 -2 19 1 4 3 -2 6 -13 5 -11 0 -14 -3 -6 -6z"/>
<path d="M19780 34546 c0 -8 4 -17 9 -21 6 -3 9 4 8 15 -1 23 -17 28 -17 6z"/>
<path d="M19826 34364 c-4 -14 -5 -28 -3 -31 3 -2 8 8 11 23 4 14 5 28 3 31
-3 2 -8 -8 -11 -23z"/>
<path d="M19510 33431 c0 -12 5 -21 10 -21 6 0 10 6 10 14 0 8 -4 18 -10 21
-5 3 -10 -3 -10 -14z"/>
<path d="M21495 33395 c-27 -24 -47 -44 -43 -45 15 0 58 24 58 33 0 6 9 2 19
-7 19 -17 20 -17 18 23 -1 23 -2 41 -2 41 0 0 -22 -20 -50 -45z"/>
<path d="M21562 33401 c-11 -6 -9 -10 7 -14 21 -5 30 -27 10 -27 -5 0 -7 -5
-4 -10 4 -6 15 -8 25 -5 12 4 19 -1 23 -14 3 -14 11 -19 27 -16 14 3 30 -5 46
-22 36 -39 30 -5 -8 48 -38 51 -57 68 -78 68 -12 0 -11 -3 3 -13 13 -10 14
-15 5 -18 -7 -3 -19 4 -28 14 -10 12 -20 15 -28 9z m86 -66 c-3 -3 -9 2 -12
12 -6 14 -5 15 5 6 7 -7 10 -15 7 -18z"/>
<path d="M21495 33330 c3 -5 8 -10 11 -10 2 0 4 5 4 10 0 6 -5 10 -11 10 -5 0
-7 -4 -4 -10z"/>
<path d="M21610 33300 c6 -11 13 -20 16 -20 2 0 0 9 -6 20 -6 11 -13 20 -16
20 -2 0 0 -9 6 -20z"/>
<path d="M21475 33270 c-3 -5 3 -10 14 -10 12 0 21 5 21 10 0 6 -6 10 -14 10
-8 0 -18 -4 -21 -10z"/>
<path d="M21590 33253 c0 -23 5 -33 15 -33 18 0 18 8 0 40 l-14 25 -1 -32z"/>
<path d="M21515 33220 c-3 -5 -1 -10 4 -10 6 0 11 5 11 10 0 6 -2 10 -4 10 -3
0 -8 -4 -11 -10z"/>
<path d="M21400 33175 c0 -8 4 -15 9 -15 5 0 14 7 21 15 10 13 9 15 -9 15 -12
0 -21 -6 -21 -15z"/>
<path d="M21603 33165 c-3 -9 -3 -18 -1 -21 3 -3 8 4 11 16 6 23 -1 27 -10 5z"/>
<path d="M21454 33136 c-3 -14 -3 -34 1 -45 7 -24 43 -28 51 -7 4 12 12 13 31
5 31 -12 40 -4 49 39 6 29 4 32 -19 32 -19 0 -28 -7 -35 -27 l-9 -28 -13 28
c-16 34 -47 36 -56 3z m122 -12 c-4 -9 -9 -15 -11 -12 -3 3 -3 13 1 22 4 9 9
15 11 12 3 -3 3 -13 -1 -22z"/>
<path d="M21485 33040 c4 -6 11 -8 16 -5 14 9 11 15 -7 15 -8 0 -12 -5 -9 -10z"/>
<path d="M21597 33015 c-5 -11 0 -15 16 -15 12 0 18 4 12 8 -5 4 -13 11 -16
15 -4 4 -9 1 -12 -8z"/>
<path d="M21540 32910 c-12 -8 -9 -10 12 -7 15 1 30 6 34 10 11 11 -29 8 -46
-3z"/>
<path d="M21548 32883 c7 -3 16 -2 19 1 4 3 -2 6 -13 5 -11 0 -14 -3 -6 -6z"/>
<path d="M25290 35545 c7 -9 15 -13 17 -11 7 7 -7 26 -19 26 -6 0 -6 -6 2 -15z"/>
<path d="M25350 35482 c0 -4 5 -13 12 -20 8 -8 8 -15 -3 -29 -12 -16 -11 -15
9 1 27 23 27 28 2 44 -11 7 -20 9 -20 4z"/>
<path d="M15655 15716 c-97 -369 -491 -1902 -490 -1904 7 -9 1240 -321 1246
-315 7 8 100 366 96 368 -1 1 -179 48 -396 103 -217 56 -396 103 -397 105 -2
2 89 361 202 798 113 436 206 802 207 813 2 16 -26 26 -220 76 l-221 58 -27
-102z"/>
<path d="M30588 15701 c-114 -20 -209 -39 -211 -41 -4 -5 -36 -2213 -33 -2217
1 -2 97 14 213 34 l211 37 6 29 c3 16 6 147 6 291 1 466 19 626 86 758 73 144
216 217 311 158 81 -49 88 -109 79 -684 l-6 -469 28 6 c15 3 111 20 214 38
l186 32 7 181 c12 303 1 952 -17 1011 -39 131 -102 216 -193 263 -60 31 -180
41 -268 22 -99 -20 -213 -85 -292 -164 -38 -39 -82 -87 -97 -106 l-28 -35 5
280 c3 154 8 355 10 448 3 92 2 167 -2 166 -4 -1 -101 -18 -215 -38z"/>
<path d="M32640 15476 c-339 -72 -584 -322 -666 -681 -27 -117 -25 -320 5
-440 82 -333 300 -502 621 -482 200 13 458 106 621 224 l47 33 -49 148 c-27
81 -52 146 -56 145 -5 -1 -39 -22 -78 -47 -131 -87 -303 -140 -435 -134 -113
4 -168 31 -215 102 -19 28 -36 62 -37 75 -3 22 3 25 102 47 313 71 566 197
665 332 56 76 78 144 77 242 0 201 -101 353 -281 421 -72 27 -229 34 -321 15z
m137 -342 c62 -39 75 -128 29 -189 -15 -19 -51 -49 -79 -65 -54 -31 -197 -79
-304 -104 -73 -16 -72 -18 -52 76 32 154 140 272 272 298 50 9 104 3 134 -16z"/>
<path d="M17120 15470 c0 -6 -385 -1972 -394 -2012 -3 -14 28 -22 208 -57 116
-23 218 -41 227 -41 12 0 28 68 79 329 l65 328 110 92 109 92 163 -487 c89
-267 164 -488 166 -491 7 -6 518 -105 523 -101 2 2 -102 294 -231 648 -129
354 -235 646 -235 650 0 5 761 673 822 721 19 15 3 19 -263 72 l-284 55 -389
-389 c-215 -213 -391 -387 -393 -385 -2 2 35 198 82 437 47 238 85 438 85 445
0 13 -12 16 -277 68 -95 18 -173 30 -173 26z"/>
<path d="M20329 15008 c0 -1 -134 -455 -298 -1008 -254 -857 -295 -1006 -282
-1012 9 -3 275 -32 591 -63 316 -30 593 -58 616 -61 l40 -6 53 182 c29 100 51
183 49 184 -1 2 -184 21 -406 43 -221 22 -404 42 -407 44 -4 4 131 475 140
490 2 3 167 -11 367 -32 200 -20 364 -36 365 -35 0 1 26 81 56 178 l54 177
-26 5 c-14 3 -177 19 -361 37 -184 18 -338 35 -342 38 -12 10 118 426 133 428
8 2 183 -15 389 -36 206 -21 376 -37 378 -36 7 6 109 360 103 362 -3 2 -256
27 -561 58 -305 30 -576 57 -602 61 -27 3 -48 4 -49 2z"/>
<path d="M25653 14940 c-112 -4 -206 -9 -209 -13 -4 -3 -56 -116 -116 -249
-316 -699 -394 -883 -468 -1102 -20 -61 -41 -111 -47 -113 -6 -2 -12 42 -16
119 -9 175 -130 1314 -141 1325 -5 5 -579 -17 -584 -22 -5 -5 -461 -2079 -458
-2081 0 0 91 2 200 5 l200 6 58 275 c111 531 158 768 213 1080 31 173 58 316
60 318 7 7 14 -39 20 -138 13 -208 48 -558 101 -1010 31 -261 57 -475 58 -475
0 0 77 2 171 5 l169 5 213 460 c217 467 368 811 464 1055 29 74 54 137 56 139
12 16 6 -39 -33 -308 -37 -261 -164 -1299 -164 -1347 0 -16 18 -17 207 -10
114 4 209 9 212 12 3 2 51 447 107 987 56 540 105 1006 108 1035 l6 52 -92 -2
c-51 -1 -184 -4 -295 -8z"/>
<path d="M29853 14899 c-442 -54 -768 -335 -860 -741 -24 -109 -21 -320 6
-421 59 -224 210 -376 421 -428 77 -19 257 -17 358 5 148 31 322 101 322 129
0 16 -42 311 -45 315 -1 1 -36 -13 -76 -33 -153 -72 -303 -83 -401 -28 -99 56
-148 161 -148 316 0 256 143 455 374 522 53 16 189 22 250 13 17 -3 22 14 51
169 l31 171 -30 6 c-68 11 -185 14 -253 5z"/>
<path d="M28797 14739 c-92 -10 -184 -55 -258 -126 -60 -57 -139 -171 -160
-231 -6 -18 -15 -32 -20 -32 -5 0 -9 70 -9 155 l0 155 -37 -5 c-59 -8 -311
-35 -326 -35 -11 0 -15 -51 -20 -287 -5 -194 -19 -441 -46 -758 -21 -258 -37
-472 -35 -474 8 -9 434 43 434 53 0 73 54 656 66 713 55 267 179 408 385 436
l76 11 16 200 c20 227 20 237 10 235 -5 -1 -39 -5 -76 -10z"/>
<path d="M27145 14550 c-447 -49 -764 -282 -900 -663 -92 -256 -84 -572 18
-737 83 -134 217 -210 370 -210 197 0 369 105 479 293 l46 78 4 -145 c1 -79 6
-147 9 -150 3 -3 88 1 190 9 101 8 188 15 194 15 7 0 10 101 10 298 l0 297 54
438 c30 240 51 440 48 443 -25 25 -388 48 -522 34z m55 -362 c0 -52 -53 -431
-71 -509 -34 -147 -110 -280 -187 -332 -116 -76 -228 -47 -283 75 -21 46 -24
68 -23 168 0 136 16 207 76 329 65 132 173 237 286 277 21 7 74 13 120 14 78
0 82 -1 82 -22z"/>
<path d="M21636 14194 c-16 -81 -93 -415 -170 -743 l-142 -596 72 -6 c40 -4
139 -8 220 -10 l147 -4 82 350 c94 402 102 430 161 545 58 113 127 190 206
229 72 36 116 39 174 11 57 -28 74 -66 74 -167 0 -85 -6 -114 -132 -641 -44
-188 -78 -345 -74 -349 11 -11 416 -27 426 -17 9 10 202 815 224 934 34 182
28 304 -18 406 -57 124 -186 194 -356 194 -166 0 -305 -59 -438 -184 -77 -74
-84 -78 -79 -51 4 17 11 59 17 95 6 36 13 79 15 97 l6 31 -93 6 c-51 3 -138 8
-193 11 l-101 6 -28 -147z"/>
<path d="M33120 13774 c-2405 -605 -5182 -1004 -8025 -1154 -1240 -65 -2534
-71 -3600 -15 -606 32 -1193 78 -1790 140 -261 27 -951 112 -1001 123 l-32 7
83 138 c96 159 233 423 224 431 -3 4 -71 9 -150 12 l-144 6 -18 -58 c-23 -75
-118 -315 -168 -422 -38 -83 -38 -83 -71 -78 -18 3 -49 8 -68 11 -1012 145
-2310 412 -3324 681 -93 25 -172 41 -176 37 -9 -11 -41 -126 -36 -131 6 -5
297 -82 576 -152 849 -212 1807 -405 2710 -545 91 -14 175 -27 187 -30 15 -3
23 0 26 12 4 17 5 17 6 1 0 -10 3 -18 5 -18 2 0 80 -11 173 -25 301 -43 1017
-133 1073 -133 8 0 51 -5 95 -11 351 -46 1340 -121 1985 -151 897 -41 2003
-41 2955 0 3032 130 5917 528 8506 1172 l486 120 -18 70 c-9 38 -19 71 -21 72
-2 1 -203 -48 -448 -110z"/>
</g>
</svg>
